<svg width="228" height="154" viewBox="0 0 228 154" fill="none" xmlns="http://www.w3.org/2000/svg">
    <path d="M0 30C0 26.6863 2.68629 24 6 24C9.31371 24 12 26.6863 12 30V154H0V30Z" fill="#FFD54F"/>
    <path d="M72 6C72 2.68629 74.6863 0 78 0C81.3137 0 84 2.68629 84 6V154H72V6Z" fill="#64B5F6"/>
    <path d="M144 95C144 91.6863 146.686 89 150 89C153.314 89 156 91.6863 156 95V154H144V95Z" fill="#E57373"/>
    <path d="M216 62C216 58.6863 218.686 56 222 56C225.314 56 228 58.6863 228 62V154H216V62Z" fill="#64B5F6"/>
</svg>
