<svg width="230" height="121" viewBox="0 0 230 121" fill="none" xmlns="http://www.w3.org/2000/svg">
    <line x1="9" y1="120.5" x2="221" y2="120.5" stroke="#E0E0E0"/>
    <line x1="9" y1="60.5" x2="221" y2="60.5" stroke="#E0E0E0"/>
    <line x1="9" y1="89.5" x2="221" y2="89.5" stroke="#E0E0E0"/>
    <line x1="9" y1="0.5" x2="221" y2="0.5" stroke="#E0E0E0"/>
    <line x1="9" y1="30.5" x2="221" y2="30.5" stroke="#E0E0E0"/>
    <g filter="url(#filter0_d_491_1983)">
        <path d="M9 105C9 105 18.1073 101.291 24.8411 90.6942C31.5749 80.0977 39.4276 70.1761 53.4894 75.6006C67.5511 81.0251 71.2838 82.6253 71.2838 82.6253C71.2838 82.6253 84.5149 89.3681 93.4999 70.5448C102.972 52.2287 110.803 46.1515 110.803 46.1515C110.803 46.1515 118.746 40.9907 126.27 52.1967C133.794 63.4027 141.269 73.5168 141.269 73.5168C141.269 73.5168 152.176 85.611 158.98 70.5448C165.784 55.4787 173.782 38.2602 173.782 38.2602C173.782 38.2602 181.809 18.3699 197.974 28.315C214.139 38.2602 221 38.2602 221 38.2602" stroke="#2196F3" stroke-width="5"/>
    </g>
    <defs>
        <filter id="filter0_d_491_1983" x="0.0501709" y="19.0302" width="228.989" height="100.284" filterUnits="userSpaceOnUse" color-interpolation-filters="sRGB">
            <feFlood flood-opacity="0" result="BackgroundImageFix"/>
            <feColorMatrix in="SourceAlpha" type="matrix" values="0 0 0 0 0 0 0 0 0 0 0 0 0 0 0 0 0 0 127 0" result="hardAlpha"/>
            <feOffset dy="4"/>
            <feGaussianBlur stdDeviation="4"/>
            <feColorMatrix type="matrix" values="0 0 0 0 0 0 0 0 0 0 0 0 0 0 0 0 0 0 0.23249 0"/>
            <feBlend mode="normal" in2="BackgroundImageFix" result="effect1_dropShadow_491_1983"/>
            <feBlend mode="normal" in="SourceGraphic" in2="effect1_dropShadow_491_1983" result="shape"/>
        </filter>
    </defs>
</svg>
