<svg width="120" height="120" viewBox="0 0 120 120" fill="none" xmlns="http://www.w3.org/2000/svg">
    <path d="M120 60C120 93.1371 93.1371 120 60 120C26.8629 120 0 93.1371 0 60C0 26.8629 26.8629 0 60 0C93.1371 0 120 26.8629 120 60ZM16.4387 60C16.4387 84.0582 35.9418 103.561 60 103.561C84.0582 103.561 103.561 84.0582 103.561 60C103.561 35.9418 84.0582 16.4387 60 16.4387C35.9418 16.4387 16.4387 35.9418 16.4387 60Z" fill="white"/>
    <path d="M74.4263 1.76014C82.0745 3.65462 89.2746 7.03698 95.6156 11.7141C101.957 16.3912 107.314 22.2715 111.383 29.0191C115.451 35.7668 118.151 43.2498 119.327 51.0407C120.504 58.8317 120.134 66.7782 118.24 74.4263C116.345 82.0745 112.963 89.2746 108.286 95.6156C103.609 101.957 97.7285 107.314 90.9808 111.383C84.2332 115.451 76.7502 118.151 68.9592 119.327C61.1682 120.504 53.2218 120.134 45.5737 118.24L49.5262 102.283C55.0789 103.659 60.8482 103.927 66.5046 103.073C72.161 102.219 77.5938 100.259 82.4927 97.305C87.3917 94.3512 91.6609 90.4614 95.0566 85.8577C98.4523 81.254 100.908 76.0265 102.283 70.4738C103.659 64.9211 103.927 59.1518 103.073 53.4954C102.219 47.839 100.259 42.4062 97.3049 37.5072C94.3512 32.6083 90.4614 28.3391 85.8577 24.9434C81.254 21.5477 76.0265 19.0921 70.4738 17.7166L74.4263 1.76014Z" fill="#64B5F6"/>
    <path d="M73.3022 1.49316C63.0096 -0.84699 52.2818 -0.430485 42.2016 2.70063C32.1214 5.83175 23.0456 11.5667 15.8903 19.3265L27.9754 30.4702C33.1704 24.8364 39.7596 20.6727 47.078 18.3995C54.3964 16.1262 62.185 15.8238 69.6577 17.5228L73.3022 1.49316Z" fill="#81C784"/>
    <path d="M15.1634 20.1292C8.38474 27.7521 3.66151 36.9775 1.44002 46.9337C-0.781472 56.8899 -0.42786 67.248 2.46744 77.0295C5.36274 86.811 10.7041 95.6928 17.9869 102.836C25.2697 109.979 34.2534 115.147 44.0892 117.852L48.4484 102.002C41.3074 100.038 34.7851 96.2856 29.4976 91.0996C24.2102 85.9137 20.3322 79.4654 18.2302 72.3638C16.1281 65.2622 15.8714 57.742 17.4842 50.5136C19.0971 43.2852 22.5262 36.5874 27.4477 31.0529L15.1634 20.1292Z" fill="#FFD54F"/>
</svg>
