<svg width="16" height="16" viewBox="0 0 16 16" fill="none" xmlns="http://www.w3.org/2000/svg">
    <path d="M13.3538 11.3538L11.3538 13.3538C11.26 13.4476 11.1327 13.5003 11 13.5003C10.8673 13.5003 10.7401 13.4476 10.6463 13.3538C10.5525 13.26 10.4997 13.1327 10.4997 13C10.4997 12.8674 10.5525 12.7401 10.6463 12.6463L11.7932 11.5H3.00003C2.86742 11.5 2.74024 11.4474 2.64647 11.3536C2.55271 11.2598 2.50003 11.1326 2.50003 11C2.50003 10.8674 2.55271 10.7402 2.64647 10.6465C2.74024 10.5527 2.86742 10.5 3.00003 10.5H11.7932L10.6463 9.35378C10.5525 9.25996 10.4997 9.13272 10.4997 9.00003C10.4997 8.86735 10.5525 8.7401 10.6463 8.64628C10.7401 8.55246 10.8673 8.49976 11 8.49976C11.1327 8.49976 11.26 8.55246 11.3538 8.64628L13.3538 10.6463C13.4003 10.6927 13.4371 10.7479 13.4623 10.8086C13.4875 10.8693 13.5004 10.9343 13.5004 11C13.5004 11.0657 13.4875 11.1308 13.4623 11.1915C13.4371 11.2522 13.4003 11.3073 13.3538 11.3538ZM4.64628 7.35378C4.7401 7.4476 4.86735 7.50031 5.00003 7.50031C5.13271 7.50031 5.25996 7.4476 5.35378 7.35378C5.4476 7.25996 5.50031 7.13272 5.50031 7.00003C5.50031 6.86735 5.4476 6.7401 5.35378 6.64628L4.2069 5.50003H13C13.1326 5.50003 13.2598 5.44736 13.3536 5.35359C13.4473 5.25982 13.5 5.13264 13.5 5.00003C13.5 4.86743 13.4473 4.74025 13.3536 4.64648C13.2598 4.55271 13.1326 4.50003 13 4.50003H4.2069L5.35378 3.35378C5.4476 3.25996 5.50031 3.13272 5.50031 3.00003C5.50031 2.86735 5.4476 2.7401 5.35378 2.64628C5.25996 2.55246 5.13271 2.49976 5.00003 2.49976C4.86735 2.49976 4.7401 2.55246 4.64628 2.64628L2.64628 4.64628C2.59979 4.69272 2.56291 4.74786 2.53775 4.80856C2.51259 4.86926 2.49963 4.93433 2.49963 5.00003C2.49963 5.06574 2.51259 5.13081 2.53775 5.1915C2.56291 5.2522 2.59979 5.30735 2.64628 5.35378L4.64628 7.35378Z" fill="#757575"/>
</svg>
