<svg width="120" height="120" viewBox="0 0 120 120" fill="none" xmlns="http://www.w3.org/2000/svg">
    <path d="M120 60C120 93.1371 93.1371 120 60 120C26.8629 120 0 93.1371 0 60C0 26.8629 26.8629 0 60 0C93.1371 0 120 26.8629 120 60ZM16.4387 60C16.4387 84.0582 35.9418 103.561 60 103.561C84.0582 103.561 103.561 84.0582 103.561 60C103.561 35.9418 84.0582 16.4387 60 16.4387C35.9418 16.4387 16.4387 35.9418 16.4387 60Z" fill="white"/>
    <path d="M74.4263 1.76014C86.2958 4.70026 96.9836 11.1969 105.058 20.3799C113.133 29.5629 118.209 40.9939 119.607 53.142C121.004 65.29 118.657 77.5751 112.879 88.352C107.101 99.1289 98.1674 107.883 87.2758 113.442L79.8028 98.7999C87.7103 94.764 94.196 88.4084 98.3911 80.5842C102.586 72.7599 104.291 63.8407 103.276 55.0209C102.261 46.2012 98.5757 37.902 92.7132 31.235C86.8508 24.5679 79.0913 19.8512 70.4738 17.7166L74.4263 1.76014Z" fill="#64B5F6"/>
    <path d="M73.3022 1.49316C60.7817 -1.35354 47.6781 -0.108562 35.9177 5.04509C24.1572 10.1988 14.3603 18.9892 7.96685 30.1244L22.2228 38.3097C26.8646 30.2253 33.9774 23.8433 42.5157 20.1016C51.0541 16.3599 60.5675 15.456 69.6577 17.5228L73.3022 1.49316Z" fill="#81C784"/>
    <path d="M7.47555 30.9969C1.31 42.1626 -1.13685 55.0027 0.490122 67.6534C2.1171 80.3041 7.73324 92.1072 16.5234 101.35C25.3136 110.592 36.8204 116.793 49.3737 119.052C61.9269 121.31 74.8735 119.51 86.3342 113.912L79.1192 99.1413C70.7985 103.206 61.399 104.513 52.285 102.873C43.1711 101.233 34.8169 96.7308 28.4351 90.0206C22.0532 83.3105 17.9758 74.7412 16.7946 65.5565C15.6134 56.3718 17.3898 47.0497 21.8661 38.9431L7.47555 30.9969Z" fill="#FFD54F"/>
</svg>
